<svg id="uiSVG" viewBox="-10 -15 100 100" xmlns="http://www.w3.org/2000/svg" preserveAspectRatio="xMidYMid meet">

 
  <g id="brandyCocktail" class="cocktail">
        <path d="M52.78,27.29C49.51,11.27,50.46,1.13,50.47,1a.92.92,0,0,0-.24-.72A.91.91,0,0,0,49.54,0H26.13a.93.93,0,0,0-.7.31,1,1,0,0,0-.24.72c0,.1,1,10.24-2.3,26.26-1.24,6-.42,10.86,2.42,14.33,3.6,4.4,9.33,5.28,11.58,5.45V62H30.55a.94.94,0,1,0,0,1.88H45.11a.94.94,0,0,0,0-1.88H38.77V47.07c2.25-.17,8-1,11.58-5.45C53.19,38.15,54,33.33,52.78,27.29ZM48.91,40.42c-3.89,4.76-11,4.82-11.08,4.82h0c-.07,0-7.19-.06-11.07-4.82-2.46-3-3.14-7.3-2-12.75A161.18,161.18,0,0,0,27.09,1.89H48.61a160.92,160.92,0,0,0,2.33,25.78C52.05,33.12,51.37,37.41,48.91,40.42Z"/>       
      <g class="drinkItem" >
          <path d="M36.41,27a2,2,0,0,0,2.65-.14l2.6-2.9a1.74,1.74,0,0,0,.52-1.3,1.62,1.62,0,0,0-.66-1.25l-2.9-2.59a1.7,1.7,0,0,0-1.3-.52,1.59,1.59,0,0,0-1.25.66l-2.59,2.89a2,2,0,0,0,.14,2.65Zm1-6.84,2.79,2.5-2.5,2.8-2.8-2.51Z"/>
          <path d="M41.25,29.17l.81,3.89a1.79,1.79,0,0,0,2.14,1.46l3.89-.8A1.83,1.83,0,0,0,49.23,33a2.16,2.16,0,0,0,.32-1.39l-.8-3.89a1.83,1.83,0,0,0-2-1.47l-.3,0-3.89.8A1.73,1.73,0,0,0,41.25,29.17Zm5.56-1,.69,3.7-3.7.69-.69-3.7Z"/>
          <path d="M33.91,28.17a1.9,1.9,0,0,0-1.73-1.08,1.82,1.82,0,0,0-.68.13L28,28.89a1.85,1.85,0,0,0-.85,2.51L28.77,35a1.84,1.84,0,0,0,2.51.84l3.55-1.66a1.84,1.84,0,0,0,.84-2.51Zm-3.41,6-1.66-3.35,3.36-1.66,1.65,3.36Z"/>

</g>
       <clipPath id="brandyMask">
            <path class="brandyMask" d="M48.91,40.42c-3.89,4.76-11,4.82-11.08,4.82h0c-.07,0-7.19-.06-11.07-4.82-2.46-3-3.14-7.3-2-12.75A161.18,161.18,0,0,0,27.09,1.89H48.61a160.92,160.92,0,0,0,2.33,25.78C52.05,33.12,51.37,37.41,48.91,40.42Z"/>
        </clipPath>
       <g clip-path="url(#brandyMask)">
        <rect id="brandyLiquid" class="drinkLiquid" y="23" width="78.5" height="60" fill-opacity="0.23" stroke-width="2" stroke="#FFF"/>
        </g>
      </g> 
 

</svg>