<?xml version="1.0" encoding="UTF-8" standalone="no" ?>
<!DOCTYPE svg PUBLIC "-//W3C//DTD SVG 1.1//EN" "http://www.w3.org/Graphics/SVG/1.1/DTD/svg11.dtd">
<svg xmlns="http://www.w3.org/2000/svg" xmlns:xlink="http://www.w3.org/1999/xlink" version="1.1" width="200" height="200" viewBox="0 0 200 200" xml:space="preserve">
<desc>Created with Fabric.js 5.2.4</desc>
<defs>
</defs>
<rect x="0" y="0" width="100%" height="100%" fill="transparent"></rect>
<g transform="matrix(0 0 0 0 0 0)" id="feeffd76-09af-4852-b578-133e437b09f5"  >
</g>
<g transform="matrix(1 0 0 1 100 100)" id="dd3e5d27-a8cc-47b0-bd43-9a37c20edbc5"  >
<rect style="stroke: none; stroke-width: 1; stroke-dasharray: none; stroke-linecap: butt; stroke-dashoffset: 0; stroke-linejoin: miter; stroke-miterlimit: 4; fill: rgb(255,255,255); fill-rule: nonzero; opacity: 1; visibility: hidden;" vector-effect="non-scaling-stroke"  x="-100" y="-100" rx="0" ry="0" width="200" height="200" />
</g>
<g transform="matrix(2.03 0 0 2.03 100 100)"  >
<path style="stroke: none; stroke-width: 1; stroke-dasharray: none; stroke-linecap: butt; stroke-dashoffset: 0; stroke-linejoin: miter; stroke-miterlimit: 4; fill: rgb(0,0,0); fill-rule: nonzero; opacity: 1;" vector-effect="non-scaling-stroke"  transform=" translate(-49.39, -50)" d="M 64.7060547 10 C 57.90002439999999 10 52.31439209999999 15.278991699999999 51.8006592 21.9560547 L 43.359924299999996 21.9560547 L 41.99218749999999 10.877441399999999 C 41.9306641 10.3764648 41.5048828 10 41 10 L 22.125 10 C 21.5722656 10 21.125 10.4477539 21.125 11 C 21.125 11.5522461 21.5722656 12 22.125 12 L 40.1162109 12 L 41.3453369 21.9560547 L 35.1679687 21.9560547 C 34.8779296 21.9560547 34.602539 22.081543 34.413085900000006 22.300293 C 34.2226562 22.519043 34.137695300000004 22.8095703 34.177734300000004 23.0961914 L 41.22851550000001 72.9160156 C 41.629760600000004 75.7504883 43.38928210000001 78.1192627 45.78210440000001 79.41461179999999 C 44.80169670000001 79.93823239999999 44.04003900000001 80.6583252 43.60742180000001 81.52978509999998 C 42.94824210000001 82.85693349999998 41.83886710000001 83.07031239999998 40.08984370000001 83.26416009999998 C 39.53027340000001 83.32617179999998 38.95214840000001 83.39013669999999 38.41406250000001 83.53027339999998 C 36.61230470000001 84.00097649999998 35.35351560000001 85.64990229999998 35.35351560000001 87.54052729999998 L 35.35351560000001 89 C 35.35351560000001 89.5522461 35.80078120000001 90 36.35351560000001 90 L 63.520507800000004 90 C 64.07324220000001 90 64.5205078 89.5522461 64.5205078 89 L 64.5205078 87.5405273 C 64.5205078 85.6499023 63.2617187 84.0009765 61.458984400000006 83.5302734 C 60.93847660000001 83.3945312 60.387695300000004 83.3251953 59.856445300000004 83.2578125 C 58.35937500000001 83.0678711 57.0664062 82.9042969 56.23535150000001 81.472168 C 55.75500480000001 80.6449585 54.97393790000001 79.9650269 54.01531980000001 79.4557495 C 56.446838400000004 78.1698608 58.23907470000001 75.7803345 58.64453120000001 72.9160156 L 63.88934320000001 35.861938499999994 C 64.16217030000001 35.87896729999999 64.43267820000001 35.91162109999999 64.70605460000002 35.91162109999999 C 71.84960930000001 35.91162109999999 77.66210930000001 30.09960939999999 77.66210930000001 22.95605469999999 C 77.6621094 15.8120117 71.8496094 10 64.7060547 10 z M 63.5546875 23.9560547 L 62.1860352 33.625 L 44.800598199999996 33.625 L 43.606872599999996 23.9560547 L 63.5546875 23.9560547 z M 41.5922852 23.9560547 L 42.7859497 33.625 L 37.6878052 33.625 L 36.319336 23.9560547 L 41.5922852 23.9560547 z M 54.5048828 82.4760742 C 55.8339844 84.7641601 57.924804699999996 85.0288086 59.604492199999996 85.2416992 C 60.095703099999994 85.3037109 60.5585938 85.3623047 60.95312499999999 85.4658203 C 61.875976599999994 85.70654300000001 62.52050779999999 86.5595703 62.52050779999999 87.54052730000001 L 62.52050779999999 88 L 37.3535156 88 L 37.3535156 87.5405273 C 37.3535156 86.55957029999999 37.997070300000004 85.70654289999999 38.919921800000004 85.46582029999999 C 39.3173827 85.3618164 39.79882800000001 85.30859369999999 40.3095702 85.2519531 C 41.954101400000006 85.0698242 44.2070311 84.8203125 45.398437400000006 82.41894529999999 C 45.9501952 81.3071289 47.58691400000001 80.54687499999999 49.5673827 80.48291009999998 C 51.78125 80.3935547 53.7714844 81.2119141 54.5048828 82.4760742 z M 56.6640625 72.6357422 C 56.1933594 75.96679689999999 53.3007813 78.4785156 49.9365234 78.4785156 C 46.5722655 78.4785156 43.6796875 75.9667968 43.2089843 72.6357422 L 37.9708252 35.625 L 43.032898 35.625 L 44.0078126 43.5219727 C 44.0703126 44.0283204 44.5009767 44.3994141 44.9990235 44.3994141 C 45.0400391 44.3994141 45.0810547 44.3969727 45.1220704 44.3920899 C 45.6708985 44.324218800000004 46.060547 43.825195400000005 45.9921876 43.2768555 L 45.0474854 35.625 L 61.902954199999996 35.625 L 56.6640625 72.6357422 z M 64.7060547 33.9116211 C 64.5263672 33.9116211 64.34948729999999 33.887634299999995 64.17004399999999 33.8789673 L 65.69628909999999 23.0961914 C 65.73632819999999 22.809570299999997 65.65136719999998 22.519043 65.46093749999999 22.300293 C 65.27148439999999 22.081543 64.99609369999999 21.9560547 64.70605469999998 21.9560547 L 53.8007202 21.9560547 C 54.3081055 16.3825684 59.0025635 12 64.7060547 12 C 70.74707029999999 12 75.66210939999999 16.9150391 75.66210939999999 22.9560547 C 75.66210939999999 28.997070299999997 70.7470703 33.9116211 64.7060547 33.9116211 z" stroke-linecap="round" />
</g>
<g transform="matrix(2.03 0 0 2.03 131.15 32.14)"  >
<path style="stroke: none; stroke-width: 1; stroke-dasharray: none; stroke-linecap: butt; stroke-dashoffset: 0; stroke-linejoin: miter; stroke-miterlimit: 4; fill: rgb(0,0,0); fill-rule: nonzero; opacity: 1;" vector-effect="non-scaling-stroke"  transform=" translate(-64.71, -16.57)" d="M 64.7060547 14.7509766 C 64.15332029999999 14.7509766 63.706054699999996 15.1987305 63.706054699999996 15.7509766 L 63.706054699999996 17.3916016 C 63.706054699999996 17.943847700000003 64.15332029999999 18.3916016 64.7060547 18.3916016 C 65.2587891 18.3916016 65.7060547 17.943847700000003 65.7060547 17.3916016 L 65.7060547 15.750976600000001 C 65.7060547 15.1987305 65.2587891 14.7509766 64.7060547 14.7509766 z" stroke-linecap="round" />
</g>
<g transform="matrix(2.03 0 0 2.03 121.96 35.94)"  >
<path style="stroke: none; stroke-width: 1; stroke-dasharray: none; stroke-linecap: butt; stroke-dashoffset: 0; stroke-linejoin: miter; stroke-miterlimit: 4; fill: rgb(0,0,0); fill-rule: nonzero; opacity: 1;" vector-effect="non-scaling-stroke"  transform=" translate(-60.19, -18.44)" d="M 60.3183594 17.1542969 C 59.9277344 16.7636719 59.2949219 16.7636719 58.9042969 17.1542969 C 58.5136719 17.5449219 58.5136719 18.1777344 58.9042969 18.5683594 L 60.0644531 19.728515599999998 C 60.2597656 19.923828099999998 60.515625 20.0214844 60.771484300000004 20.0214844 C 61.02734360000001 20.0214844 61.2832031 19.9238282 61.47851550000001 19.728515599999998 C 61.86914050000001 19.337890599999998 61.86914050000001 18.705078099999998 61.47851550000001 18.314453099999998 L 60.3183594 17.1542969 z" stroke-linecap="round" />
</g>
<g transform="matrix(2.03 0 0 2.03 140.32 54.28)"  >
<path style="stroke: none; stroke-width: 1; stroke-dasharray: none; stroke-linecap: butt; stroke-dashoffset: 0; stroke-linejoin: miter; stroke-miterlimit: 4; fill: rgb(0,0,0); fill-rule: nonzero; opacity: 1;" vector-effect="non-scaling-stroke"  transform=" translate(-69.22, -27.47)" d="M 69.3476562 26.1831055 C 68.9570312 25.7924805 68.3242187 25.7924805 67.9335937 26.1831055 C 67.5429687 26.5737305 67.5429687 27.206543 67.9335937 27.597168 L 69.0937499 28.7573242 C 69.2890624 28.9526367 69.54492180000001 29.050293 69.80078110000001 29.050293 C 70.0566404 29.050293 70.3124999 28.9526368 70.50781230000001 28.7573242 C 70.89843730000001 28.3666992 70.89843730000001 27.7338867 70.50781230000001 27.3432617 L 69.3476562 26.1831055 z" stroke-linecap="round" />
</g>
<g transform="matrix(2.03 0 0 2.03 144.11 45.12)"  >
<path style="stroke: none; stroke-width: 1; stroke-dasharray: none; stroke-linecap: butt; stroke-dashoffset: 0; stroke-linejoin: miter; stroke-miterlimit: 4; fill: rgb(0,0,0); fill-rule: nonzero; opacity: 1;" vector-effect="non-scaling-stroke"  transform=" translate(-71.09, -22.96)" d="M 70.2705078 21.9560547 C 69.7177734 21.9560547 69.2705078 22.403808599999998 69.2705078 22.9560547 C 69.2705078 23.5083008 69.7177734 23.9560547 70.2705078 23.9560547 L 71.9111328 23.9560547 C 72.46386720000001 23.9560547 72.9111328 23.5083008 72.9111328 22.9560547 C 72.9111328 22.403808599999998 72.46386720000001 21.9560547 71.9111328 21.9560547 L 70.2705078 21.9560547 z" stroke-linecap="round" />
</g>
<g transform="matrix(2.03 0 0 2.03 140.32 35.94)"  >
<path style="stroke: none; stroke-width: 1; stroke-dasharray: none; stroke-linecap: butt; stroke-dashoffset: 0; stroke-linejoin: miter; stroke-miterlimit: 4; fill: rgb(0,0,0); fill-rule: nonzero; opacity: 1;" vector-effect="non-scaling-stroke"  transform=" translate(-69.22, -18.44)" d="M 68.640625 20.0214844 C 68.8964844 20.0214844 69.1523438 19.9238282 69.3476562 19.728515599999998 L 70.5078124 18.5683594 C 70.8984374 18.1777344 70.8984374 17.5449219 70.5078124 17.1542969 C 70.1171874 16.7636719 69.4843749 16.7636719 69.0937499 17.1542969 L 67.9335937 18.314453099999998 C 67.5429687 18.705078099999998 67.5429687 19.337890599999998 67.9335937 19.728515599999998 C 68.1289062 19.9238281 68.3847656 20.0214844 68.640625 20.0214844 z" stroke-linecap="round" />
</g>
</svg>