<svg id="uiSVG" viewBox="-10 -15 100 100" xmlns="http://www.w3.org/2000/svg" preserveAspectRatio="xMidYMid meet">

 

      <g id="screwdriverCocktail" class="cocktail"> 
        <path d="M25.51,53.85h25c2,0,4.32-.59,4.42-2.16l3.34-41.45a1.65,1.65,0,0,0-.29-.89,2,2,0,0,0-1.58-.49H19.52A2.67,2.67,0,0,0,18,9.35a1.37,1.37,0,0,0-.3.89L21,51.69C21.19,53.36,23.55,53.85,25.51,53.85ZM53,51.39a4.64,4.64,0,0,1-2.56.5H25.51a4.86,4.86,0,0,1-2.55-.5L19.62,10.83H56.26Z"/>
        <g class="drinkItem">
          <path d="M36.12,37.64a2,2,0,0,0-2.65,0l-2.75,2.75a1.72,1.72,0,0,0-.59,1.28A1.58,1.58,0,0,0,30.72,43l2.75,2.75a1.72,1.72,0,0,0,1.27.59A1.58,1.58,0,0,0,36,45.7L38.77,43a2,2,0,0,0,0-2.66Zm-1.38,6.78-2.65-2.65,2.65-2.65,2.66,2.65Z"/>
          <path d="M46.34,33.91a2,2,0,0,0-2.66,0l-2.75,2.75a1.74,1.74,0,0,0-.59,1.28,1.57,1.57,0,0,0,.59,1.27L43.68,42a1.72,1.72,0,0,0,1.28.59A1.58,1.58,0,0,0,46.24,42L49,39.21a2,2,0,0,0,0-2.65Zm-1.28,6.68-2.65-2.65,2.65-2.65,2.65,2.65Z"/>
          <path d="M49.68,24.09a2,2,0,0,0-2.66,0l-2.75,2.75a2,2,0,0,0,0,2.65L47,32.24a1.76,1.76,0,0,0,1.28.59,1.61,1.61,0,0,0,1.28-.59l2.75-2.75a1.74,1.74,0,0,0,.59-1.28,1.57,1.57,0,0,0-.59-1.27ZM48.3,30.86l-2.65-2.65,2.65-2.65L51,28.21Z"/>
          <path d="M31.4,35.19l-.58-3.93a1.8,1.8,0,0,0-2.07-1.57l-3.93.59a1.81,1.81,0,0,0-1.18.68,2.32,2.32,0,0,0-.39,1.38l.59,3.93a1.83,1.83,0,0,0,1.87,1.57H26l3.93-.59A1.73,1.73,0,0,0,31.4,35.19Zm-5.59.68-.5-3.73,3.74-.49.49,3.73Z"/>
          <path d="M34.84,33.22a1.93,1.93,0,0,0,1.67,1.18,1.66,1.66,0,0,0,.69-.1l3.63-1.47a1.84,1.84,0,0,0,1-2.46l-1.48-3.63a1.83,1.83,0,0,0-2.45-1l-3.64,1.47a1.84,1.84,0,0,0-1,2.46Zm3.74-5.79,1.47,3.43-3.44,1.48L35.14,28.9Z"/>
        </g>     
       <clipPath id="screwdriverMask">
            <path class="screwdriverMask" d="M53,51.39a4.64,4.64,0,0,1-2.56.5H25.51a4.86,4.86,0,0,1-2.55-.5L19.62,10.83H56.26Z"/>
        </clipPath>   
       <g clip-path="url(#screwdriverMask)">
        <rect id="screwdriverLiquid" class="drinkLiquid" y="28" width="78.5" height="38.29" fill-opacity="0.23" stroke="#FFF" stroke-width="2"/>

        </g>         
      </g>
 
     

</svg>