<?xml version="1.0" encoding="UTF-8" standalone="no" ?>
<!DOCTYPE svg PUBLIC "-//W3C//DTD SVG 1.1//EN" "http://www.w3.org/Graphics/SVG/1.1/DTD/svg11.dtd">
<svg xmlns="http://www.w3.org/2000/svg" xmlns:xlink="http://www.w3.org/1999/xlink" version="1.1" width="200" height="200" viewBox="0 0 200 200" xml:space="preserve">
<desc>Created with Fabric.js 5.2.4</desc>
<defs>
</defs>
<rect x="0" y="0" width="100%" height="100%" fill="transparent"></rect>
<g transform="matrix(0 0 0 0 0 0)" id="feeffd76-09af-4852-b578-133e437b09f5"  >
</g>
<g transform="matrix(1 0 0 1 100 100)" id="dd3e5d27-a8cc-47b0-bd43-9a37c20edbc5"  >
<rect style="stroke: none; stroke-width: 1; stroke-dasharray: none; stroke-linecap: butt; stroke-dashoffset: 0; stroke-linejoin: miter; stroke-miterlimit: 4; fill: rgb(255,255,255); fill-rule: nonzero; opacity: 1; visibility: hidden;" vector-effect="non-scaling-stroke"  x="-100" y="-100" rx="0" ry="0" width="200" height="200" />
</g>
<g transform="matrix(2.21 0 0 2.21 84.56 99.94)"  >
<path style="stroke: none; stroke-width: 1; stroke-dasharray: none; stroke-linecap: butt; stroke-dashoffset: 0; stroke-linejoin: miter; stroke-miterlimit: 4; fill: rgb(0,0,0); fill-rule: nonzero; opacity: 1;" vector-effect="non-scaling-stroke"  transform=" translate(-47, -50)" d="M 40.1938477 36.8256836 L 40.8642579 36.8256836 L 40.8642579 89 C 40.8642579 89.5522461 41.3120118 90 41.8642579 90 L 64.9448243 90 C 65.4970704 90 65.9448243 89.5522461 65.9448243 89 L 65.9448243 23.7104492 C 65.9448243 23.158203099999998 65.4970704 22.7104492 64.9448243 22.7104492 L 55.626159699999995 22.7104492 C 55.15271 15.6256714 49.1699829 10 41.8642578 10 C 34.25 10 28.0551758 16.1503906 28.0551758 23.7104492 C 28.0551758 31.7490234 34.277832 36.4663086 40.1938477 36.8256836 z M 42.8642578 88 L 42.8642578 37.3131714 C 43.877624499999996 37.6800537 45.1396484 37.9672852 46.8496094 37.9672852 C 49.866211 37.9672852 51.5756836 37.0673829 53.0839844 36.2729493 C 54.5136719 35.5205079 55.8637696 34.8095704 58.3842774 34.8095704 C 60.910644600000005 34.8095704 62.2607422 35.5214845 63.6899415 36.275878999999996 L 63.9448243 36.40911869999999 L 63.9448243 88 L 42.8642578 88 z M 63.9448242 34.1558838 C 62.586181599999996 33.468139699999995 60.9654541 32.8095703 58.3842773 32.8095703 C 55.3696289 32.8095703 53.660644500000004 33.7094726 52.1523437 34.503417999999996 C 50.7226562 35.2563477 49.371582000000004 35.9672852 46.849609300000004 35.9672852 C 45.0167846 35.9672852 43.83483880000001 35.5946656 42.8642577 35.1586304 L 42.8642577 24.7104492 L 63.944824100000005 24.7104492 L 63.944824100000005 34.1558838 z M 41.8642578 12 C 48.066711399999996 12 53.1561279 16.728576699999998 53.6259766 22.7104492 L 41.8642578 22.7104492 C 41.3120117 22.7104492 40.8642578 23.158203099999998 40.8642578 23.7104492 L 40.8642578 34.8266601 L 40.2548828 34.8276367 C 33.6298828 34.4228515 30.055175799999997 28.7978515 30.055175799999997 23.7104492 C 30.0551758 17.253418 35.3525391 12 41.8642578 12 z" stroke-linecap="round" />
</g>
<g transform="matrix(2.21 0 0 2.21 58.47 41.85)"  >
<path style="stroke: none; stroke-width: 1; stroke-dasharray: none; stroke-linecap: butt; stroke-dashoffset: 0; stroke-linejoin: miter; stroke-miterlimit: 4; fill: rgb(0,0,0); fill-rule: nonzero; opacity: 1;" vector-effect="non-scaling-stroke"  transform=" translate(-35.19, -23.71)" d="M 36.746582 24.7104492 C 37.298828099999994 24.7104492 37.746582 24.2626953 37.746582 23.7104492 C 37.746582 23.158203099999998 37.298828099999994 22.7104492 36.746582 22.7104492 L 33.6328125 22.7104492 C 33.0805664 22.7104492 32.6328125 23.158203099999998 32.6328125 23.7104492 C 32.6328125 24.2626953 33.0805664 24.7104492 33.6328125 24.7104492 L 36.746582 24.7104492 z" stroke-linecap="round" />
</g>
<g transform="matrix(2.21 0 0 2.21 73.23 27.2)"  >
<path style="stroke: none; stroke-width: 1; stroke-dasharray: none; stroke-linecap: butt; stroke-dashoffset: 0; stroke-linejoin: miter; stroke-miterlimit: 4; fill: rgb(0,0,0); fill-rule: nonzero; opacity: 1;" vector-effect="non-scaling-stroke"  transform=" translate(-41.86, -17.09)" d="M 41.8642578 19.6323242 C 42.416503899999995 19.6323242 42.8642578 19.1845703 42.8642578 18.6323242 L 42.8642578 15.542480399999999 C 42.8642578 14.9902343 42.416503899999995 14.542480399999999 41.8642578 14.542480399999999 C 41.3120117 14.542480399999999 40.8642578 14.9902343 40.8642578 15.542480399999999 L 40.8642578 18.6323242 C 40.8642578 19.1845703 41.3120117 19.6323242 41.8642578 19.6323242 z" stroke-linecap="round" />
</g>
<g transform="matrix(2.21 0 0 2.21 62.79 52.2)"  >
<path style="stroke: none; stroke-width: 1; stroke-dasharray: none; stroke-linecap: butt; stroke-dashoffset: 0; stroke-linejoin: miter; stroke-miterlimit: 4; fill: rgb(0,0,0); fill-rule: nonzero; opacity: 1;" vector-effect="non-scaling-stroke"  transform=" translate(-37.14, -28.39)" d="M 37.5415039 26.5917969 L 35.3393555 28.7763672 C 34.9472657 29.1655274 34.94433600000001 29.7983399 35.333496100000005 30.1904297 C 35.528808600000005 30.3876953 35.786132800000004 30.486328099999998 36.043457000000004 30.486328099999998 C 36.2978515 30.486328099999998 36.552734300000004 30.3896484 36.747558600000005 30.196288999999997 L 38.949707000000004 28.011718699999996 C 39.341796800000004 27.622558499999997 39.3447265 26.989745999999997 38.9555664 26.597656199999996 C 38.5673828 26.2055664 37.9335938 26.2036133 37.5415039 26.5917969 z" stroke-linecap="round" />
</g>
<g transform="matrix(2.21 0 0 2.21 83.66 31.5)"  >
<path style="stroke: none; stroke-width: 1; stroke-dasharray: none; stroke-linecap: butt; stroke-dashoffset: 0; stroke-linejoin: miter; stroke-miterlimit: 4; fill: rgb(0,0,0); fill-rule: nonzero; opacity: 1;" vector-effect="non-scaling-stroke"  transform=" translate(-46.58, -19.03)" d="M 45.4829102 21.1196289 C 45.737792999999996 21.1196289 45.9921875 21.0229492 46.1875 20.829589799999997 L 48.3891602 18.644531199999996 C 48.7807618 18.255370999999997 48.7832032 17.622070299999997 48.3945313 17.229980399999995 C 48.0043946 16.838378799999994 47.3720704 16.835937399999995 46.979980499999996 17.224609299999994 L 44.7783203 19.409667899999995 C 44.386718699999996 19.798828099999994 44.384277299999994 20.432128799999994 44.7729492 20.824218699999996 C 44.96875 21.0209961 45.2255859 21.1196289 45.4829102 21.1196289 z" stroke-linecap="round" />
</g>
<g transform="matrix(2.21 0 0 2.21 62.79 31.5)"  >
<path style="stroke: none; stroke-width: 1; stroke-dasharray: none; stroke-linecap: butt; stroke-dashoffset: 0; stroke-linejoin: miter; stroke-miterlimit: 4; fill: rgb(0,0,0); fill-rule: nonzero; opacity: 1;" vector-effect="non-scaling-stroke"  transform=" translate(-37.14, -19.03)" d="M 37.5415039 20.8295898 C 37.7363281 21.0229492 37.9907227 21.119628900000002 38.2456055 21.119628900000002 C 38.5029297 21.119628900000002 38.7597657 21.0209961 38.9555664 20.823730500000003 C 39.3442383 20.432128900000002 39.341796900000006 19.798828200000003 38.950195300000004 19.409668000000003 L 36.747558600000005 17.224609400000002 C 36.355468800000004 16.835449200000003 35.722656300000004 16.8378906 35.333496100000005 17.229980500000003 C 34.944824200000006 17.622070300000004 34.9472656 18.255371100000005 35.3388672 18.644531300000004 L 37.5415039 20.8295898 z" stroke-linecap="round" />
</g>
</svg>