<svg id="uiSVG" viewBox="-10 -15 100 100" xmlns="http://www.w3.org/2000/svg" preserveAspectRatio="xMidYMid meet">

 

 
      
 
      <g id="champagne" class="cocktail">
        <path id="champagneFlute" d="M45.54,67H29.32a1,1,0,0,1,0-2h7.11V49.11C32.74,35.24,27,20.56,18.87,4.24a1,1,0,0,1,.05-1,1,1,0,0,1,.85-.47H55.09A1,1,0,0,1,56,4.26,218.43,218.43,0,0,0,38.43,49.11V65h7.11a1,1,0,1,1,0,2ZM21.38,4.8a243.9,243.9,0,0,1,16,40.4,222,222,0,0,1,16-40.4Z"/>
        <g id="champagneBubbles" class="drinkItem">
             <path d="M41.38,31.16a3.25,3.25,0,1,0-3.25,3.25A3.25,3.25,0,0,0,41.38,31.16Zm-4.61,0a1.36,1.36,0,1,1,1.36,1.36A1.36,1.36,0,0,1,36.77,31.16Z"/>
          <path d="M39,21.44a3.83,3.83,0,1,0-3.83,3.83A3.84,3.84,0,0,0,39,21.44Zm-5.77,0a1.94,1.94,0,1,1,1.94,1.94A1.94,1.94,0,0,1,33.19,21.44Z"/>
          <path d="M43.68,18.75a4.19,4.19,0,1,0-4.19-4.19A4.19,4.19,0,0,0,43.68,18.75Zm0-6.48a2.3,2.3,0,1,1-2.3,2.3A2.3,2.3,0,0,1,43.68,12.27Z"/>
        </g>
        <clipPath id="champagneMask">
          <path class="champagneMask" d="M21.38,4.8a243.9,243.9,0,0,1,16,40.4,222,222,0,0,1,16-40.4Z" fill="#39b54a"/>

        </clipPath>
        <g clip-path="url(#champagneMask)">
            <rect id="champagneLiquid" class="drinkLiquid" y="14.56" width="78.5" height="55.19" fill-opacity="0.23" stroke="#FFF" stroke-width="2"/>
        </g>
      </g> 
 
 

</svg>