<?xml version="1.0" encoding="UTF-8" standalone="no" ?>
<!DOCTYPE svg PUBLIC "-//W3C//DTD SVG 1.1//EN" "http://www.w3.org/Graphics/SVG/1.1/DTD/svg11.dtd">
<svg xmlns="http://www.w3.org/2000/svg" xmlns:xlink="http://www.w3.org/1999/xlink" version="1.1" width="200" height="200" viewBox="0 0 200 200" xml:space="preserve">
<desc>Created with Fabric.js 5.2.4</desc>
<defs>
</defs>
<rect x="0" y="0" width="100%" height="100%" fill="transparent"></rect>
<g transform="matrix(1 0 0 1 100 100)" id="dd3e5d27-a8cc-47b0-bd43-9a37c20edbc5"  >
<rect style="stroke: none; stroke-width: 1; stroke-dasharray: none; stroke-linecap: butt; stroke-dashoffset: 0; stroke-linejoin: miter; stroke-miterlimit: 4; fill: rgb(255,255,255); fill-rule: nonzero; opacity: 1; visibility: hidden;" vector-effect="non-scaling-stroke"  x="-100" y="-100" rx="0" ry="0" width="200" height="200" />
</g>
<g transform="matrix(Infinity NaN NaN Infinity 0 0)" id="feeffd76-09af-4852-b578-133e437b09f5"  >
</g>
<g transform="matrix(2 0 0 2 101 100)"  >
<path style="stroke: none; stroke-width: 1; stroke-dasharray: none; stroke-linecap: butt; stroke-dashoffset: 0; stroke-linejoin: miter; stroke-miterlimit: 4; fill: rgb(0,0,0); fill-rule: nonzero; opacity: 1;" vector-effect="non-scaling-stroke"  transform=" translate(-50, -50)" d="M 77.014 5.758 C 76.826 5.182 76.207 4.867 75.63 5.055 L 63.048 9.157 C 62.63 9.293 62.333 9.667 62.295 10.105 L 61.506 19.161 C 57.386 18.553 52.278999999999996 18.222 46.897999999999996 18.222 C 40.739 18.222 34.93899999999999 18.655 30.566999999999997 19.442 C 28.391 19.834 26.665999999999997 20.296 25.440999999999995 20.817 C 24.740999999999996 21.115 24.208999999999996 21.428 23.815999999999995 21.773 C 23.374999999999996 22.161 23.156999999999996 22.555 23.055999999999994 22.899 C 22.960999999999995 23.080000000000002 22.915999999999993 23.29 22.935999999999993 23.508000000000003 L 29.212999999999994 90.88 C 29.212999999999994 90.892 29.211999999999993 90.904 29.211999999999993 90.916 C 29.211999999999993 91.06099999999999 29.231999999999992 91.206 29.270999999999994 91.348 C 29.273999999999994 91.358 29.275999999999993 91.368 29.278999999999993 91.377 C 29.279999999999994 91.38199999999999 29.28099999999999 91.387 29.282999999999994 91.392 C 29.506999999999994 92.14099999999999 30.205999999999996 92.71799999999999 31.482999999999993 93.207 C 32.42999999999999 93.57 33.709999999999994 93.89099999999999 35.285999999999994 94.16 C 38.44 94.703 42.564 95 46.898 95 C 51.232000000000006 95 55.355000000000004 94.703 58.510000000000005 94.163 C 60.087 93.893 61.367000000000004 93.573 62.313 93.21 C 63.59 92.72099999999999 64.289 92.14399999999999 64.513 91.393 C 64.51400000000001 91.388 64.515 91.383 64.51700000000001 91.378 C 64.52000000000001 91.369 64.522 91.36 64.52400000000002 91.351 C 64.56200000000001 91.208 64.58300000000001 91.063 64.58300000000001 90.917 C 64.58300000000001 90.905 64.58200000000001 90.893 64.58200000000001 90.881 L 69.513 37.955 C 69.65700000000001 37.687 69.679 37.381 69.592 37.106 L 70.859 23.509 C 70.87899999999999 23.29 70.83399999999999 23.081 70.73899999999999 22.9 C 70.63799999999999 22.555999999999997 70.41999999999999 22.162 69.97899999999998 21.773999999999997 C 69.58599999999998 21.427999999999997 69.05399999999999 21.115 68.35399999999998 20.817999999999998 C 67.21499999999999 20.333 65.64199999999998 19.898999999999997 63.676999999999985 19.525999999999996 L 64.41799999999999 11.019999999999996 L 76.31099999999999 7.141999999999996 C 76.887 6.953 77.202 6.334 77.014 5.758 z M 31.722 21.472 C 35.873000000000005 20.792 41.262 20.418000000000003 46.897000000000006 20.418000000000003 C 52.19500000000001 20.418000000000003 57.275000000000006 20.749000000000002 61.31400000000001 21.353 L 60.94800000000001 25.553 C 56.97100000000001 26.123 52.037000000000006 26.435000000000002 46.897000000000006 26.435000000000002 C 41.26200000000001 26.435000000000002 35.87200000000001 26.061000000000003 31.722000000000005 25.381000000000004 C 26.971000000000004 24.603000000000005 25.613000000000007 23.738000000000003 25.262000000000004 23.426000000000002 C 25.613 23.115 26.972 22.249 31.722 21.472 z M 25.373 26.005 C 25.396 26.015 25.418000000000003 26.025 25.441000000000003 26.034 C 26.666000000000004 26.555 28.39 27.018 30.567000000000004 27.409 C 34.93900000000001 28.195999999999998 40.739000000000004 28.628999999999998 46.898 28.628999999999998 C 51.956 28.628999999999998 56.771 28.336999999999996 60.753 27.796 L 59.696 39.927 C 56.513 40.165 52.07 39.803 46.042 37.987 C 42.425000000000004 36.897 39.073 36.345 36.079 36.345 L 36.062 36.345 C 33.617999999999995 36.347 31.4 36.714999999999996 29.47 37.439 C 28.259 37.893 27.305999999999997 38.436 26.58 38.95 L 25.373 26.005 z M 62.393 90.72 C 62.149 90.91199999999999 61.126 91.53399999999999 57.632 92.083 C 54.668 92.54899999999999 50.855999999999995 92.80499999999999 46.899 92.80499999999999 C 42.942 92.80499999999999 39.13 92.54899999999999 36.166 92.083 C 32.672 91.53399999999999 31.647999999999996 90.91199999999999 31.404999999999998 90.72 L 26.827999999999996 41.598 C 27.354999999999997 41.066 28.487999999999996 40.122 30.421999999999997 39.43 C 33.089999999999996 38.475 37.855 37.815 45.41 40.091 C 50.520999999999994 41.631 54.620999999999995 42.193 57.887 42.193 C 58.451 42.193 58.989 42.175999999999995 59.504 42.144 L 56.385999999999996 77.923 C 56.333 78.527 56.779999999999994 79.059 57.38399999999999 79.112 C 57.41599999999999 79.115 57.44899999999999 79.116 57.47999999999999 79.116 C 58.04299999999999 79.116 58.52199999999999 78.685 58.57199999999999 78.114 L 61.728 41.9 C 64.156 41.507 65.902 40.772999999999996 67.114 40.05 L 62.393 90.72 z M 67.388 37.103 C 66.92200000000001 37.576 65.766 38.539 63.56700000000001 39.227000000000004 C 63.08500000000001 39.37800000000001 62.53900000000001 39.518 61.925000000000004 39.637 L 62.987 27.453000000000003 C 63.068000000000005 27.439000000000004 63.149 27.425000000000004 63.229 27.410000000000004 C 65.406 27.018000000000004 67.13 26.556000000000004 68.355 26.035000000000004 C 68.378 26.025000000000002 68.4 26.016000000000005 68.422 26.006000000000004 L 67.388 37.103 z M 68.533 23.426 C 68.211 23.712 67.041 24.464 63.184 25.186 L 63.486 21.723 C 67.103 22.428 68.22 23.148 68.533 23.426 z M 43.518 71.98 C 42.802 71.102 41.787 70.555 40.660000000000004 70.44 C 39.533 70.325 38.428000000000004 70.65599999999999 37.550000000000004 71.372 L 36.973000000000006 71.843 C 36.095000000000006 72.559 35.54800000000001 73.574 35.43300000000001 74.70100000000001 C 35.318000000000005 75.82800000000002 35.64900000000001 76.933 36.36500000000001 77.811 L 36.836000000000006 78.388 C 37.55200000000001 79.266 38.56700000000001 79.813 39.694 79.92800000000001 C 39.84 79.94300000000001 39.986000000000004 79.95000000000002 40.131 79.95000000000002 C 41.104 79.95000000000002 42.039 79.61800000000002 42.804 78.99500000000002 L 43.381 78.52400000000002 C 44.259 77.80800000000002 44.806 76.79300000000002 44.921 75.66600000000001 C 45.036 74.539 44.705 73.43400000000001 43.989 72.55600000000001 L 43.518 71.98 z M 42.737 75.445 C 42.682 75.98899999999999 42.418 76.479 41.994 76.824 L 41.417 77.295 C 40.993 77.641 40.46 77.801 39.916000000000004 77.745 C 39.37200000000001 77.69 38.882000000000005 77.426 38.537000000000006 77.00200000000001 L 38.06600000000001 76.42500000000001 C 37.72100000000001 76.001 37.56100000000001 75.46800000000002 37.61600000000001 74.924 C 37.67100000000001 74.38000000000001 37.93500000000001 73.89 38.35900000000001 73.545 L 38.93600000000001 73.074 C 39.30500000000001 72.773 39.75600000000001 72.613 40.226000000000006 72.613 C 40.29600000000001 72.613 40.36600000000001 72.617 40.437000000000005 72.624 C 40.981 72.679 41.471000000000004 72.943 41.816 73.36699999999999 L 42.287 73.94399999999999 C 42.633 74.368 42.792 74.901 42.737 75.445 z M 47.953 58.754 L 47.211000000000006 58.82 C 46.08200000000001 58.921 45.06100000000001 59.455 44.334 60.324 C 43.607000000000006 61.193 43.262 62.294 43.36300000000001 63.422 L 43.42900000000001 64.164 C 43.62500000000001 66.366 45.48100000000001 68.029 47.65100000000001 68.029 C 47.77700000000001 68.029 47.90400000000001 68.023 48.03100000000001 68.012 L 48.77300000000001 67.946 C 48.77300000000001 67.946 48.77300000000001 67.946 48.77300000000001 67.946 C 49.90200000000001 67.845 50.92300000000001 67.31099999999999 51.65000000000001 66.442 C 52.37700000000001 65.573 52.722000000000016 64.473 52.62100000000001 63.343999999999994 L 52.55500000000001 62.602 C 52.347 60.273 50.283 58.547 47.953 58.754 z M 49.966 65.035 C 49.615 65.454 49.122 65.712 48.578 65.761 L 47.836000000000006 65.827 C 46.711000000000006 65.928 45.71600000000001 65.094 45.61500000000001 63.97 L 45.54900000000001 63.228 C 45.50000000000001 62.683 45.66700000000001 62.153 46.01800000000001 61.733000000000004 C 46.36900000000001 61.31300000000001 46.86200000000001 61.056000000000004 47.406000000000006 61.007000000000005 L 48.148 60.941 C 48.21 60.936 48.271 60.933 48.331 60.933 C 49.378 60.933 50.274 61.735 50.368 62.798 L 50.434000000000005 63.54 C 50.483 64.084 50.317 64.615 49.966 65.035 z M 38.293 60.181 L 38.938 59.809 L 38.938 59.809 C 39.919000000000004 59.242999999999995 40.621 58.327999999999996 40.914 57.233 C 41.207 56.138999999999996 41.057 54.995 40.49 54.013999999999996 L 40.118 53.36899999999999 C 39.551 52.38799999999999 38.637 51.68599999999999 37.542 51.392999999999994 C 36.448 51.099999999999994 35.304 51.24999999999999 34.323 51.81699999999999 L 33.678 52.18899999999999 C 32.696999999999996 52.75599999999999 31.994999999999997 53.669999999999995 31.701999999999998 54.76499999999999 C 31.409 55.858999999999995 31.558999999999997 57.00299999999999 32.126 57.983999999999995 L 32.498 58.629 C 33.065 59.61 33.979 60.312 35.074 60.605 C 35.439 60.702999999999996 35.809999999999995 60.751 36.178999999999995 60.751 C 36.914 60.751 37.639 60.558 38.293 60.181 z M 35.642 58.484 C 35.114000000000004 58.343 34.673 58.004000000000005 34.399 57.53 L 34.027 56.885 C 33.754 56.411 33.681000000000004 55.86 33.823 55.332 C 33.964 54.804 34.303 54.362 34.777 54.089 L 35.422000000000004 53.717 C 35.737 53.535 36.087 53.442 36.44200000000001 53.442 C 36.620000000000005 53.442 36.79900000000001 53.465 36.97500000000001 53.513 C 37.50300000000001 53.653999999999996 37.94400000000001 53.992999999999995 38.21800000000001 54.467 L 38.59000000000001 55.112 C 38.863000000000014 55.586 38.93600000000001 56.137 38.79400000000001 56.665 C 38.65300000000001 57.193 38.314000000000014 57.634 37.84000000000001 57.908 L 37.19500000000001 58.28 C 36.722 58.553 36.17 58.626 35.642 58.484 z M 52.615 46.444 L 51.97 46.072 C 50.989 45.505 49.846 45.355000000000004 48.751 45.648 C 47.657 45.941 46.742 46.643 46.175 47.624 L 45.803 48.269000000000005 C 44.634 50.295 45.33 52.894000000000005 47.355999999999995 54.06400000000001 L 48 54.437 C 48.654 54.814 49.379 55.007 50.114 55.007 C 50.482 55.007 50.852999999999994 54.958999999999996 51.218999999999994 54.861 C 52.312999999999995 54.568 53.227999999999994 53.866 53.794999999999995 52.885 L 54.16799999999999 52.239999999999995 C 55.337 50.213 54.64 47.614 52.615 46.444 z M 52.266 51.141 L 51.894 51.786 C 51.620999999999995 52.259 51.178999999999995 52.598 50.650999999999996 52.74 C 50.123 52.881 49.571 52.809000000000005 49.098 52.536 L 49.098 52.536 L 48.452999999999996 52.164 C 47.476 51.6 47.13999999999999 50.345 47.70399999999999 49.368 L 48.07599999999999 48.723 C 48.349 48.25 48.791 47.911 49.318999999999996 47.769 C 49.846999999999994 47.628 50.398999999999994 47.699999999999996 50.87199999999999 47.974 L 51.516999999999996 48.346 C 52.494 48.909 52.831 50.164 52.266 51.141 z" stroke-linecap="round" />
</g>
</svg>