<svg xmlns="http://www.w3.org/2000/svg" xmlns:xlink="http://www.w3.org/1999/xlink" width="1080" zoomAndPan="magnify" viewBox="0 0 810 809.999993" height="1080" preserveAspectRatio="xMidYMid meet" version="1.0"><defs><g/></defs><path stroke-linecap="butt" transform="matrix(1.867463, 0, 0, 1.867463, -37.14432, 253.735495)" fill="none" stroke-linejoin="miter" d="M 156.227876 16.892305 C 156.828206 15.905003 157.779948 15.411352 159.083103 15.411352 L 169.870214 15.411352 C 170.610691 15.411352 171.156635 15.622617 171.508048 16.045149 C 171.861552 16.469773 171.966139 16.980158 171.825992 17.578396 L 153.636208 164.832814 C 153.636208 165.395492 153.424942 165.907969 153.002411 166.366061 C 152.579879 166.788592 151.998375 166.999858 151.257898 166.999858 L 140.62976 166.999858 C 139.362164 166.999858 138.726275 166.278207 138.726275 164.832814 L 153.002411 48.774628 C 153.144649 48.316537 153.109089 48.086446 152.897824 48.086446 C 152.686558 48.086446 152.439732 48.228684 152.157347 48.511069 L 124.397846 95.303326 C 123.975314 96.326188 123.251571 96.836573 122.230801 96.836573 C 120.925555 96.836573 120.203904 96.326188 120.061665 95.303326 L 103.829751 48.774628 C 103.689605 48.456684 103.513898 48.299803 103.302633 48.299803 C 103.089275 48.299803 102.913569 48.527803 102.773422 48.985894 L 88.656259 164.832814 C 88.51402 165.395492 88.231635 165.907969 87.809103 166.366061 C 87.386571 166.788592 86.876187 166.999858 86.275857 166.999858 L 75.490838 166.999858 C 74.045444 166.999858 73.46394 166.278207 73.746325 164.832814 L 91.722752 17.578396 C 92.005137 16.135094 92.797907 15.411352 94.101062 15.411352 L 105.151732 15.411352 C 106.456979 15.411352 107.17863 15.905003 107.320868 16.892305 L 125.297294 66.962321 C 125.297294 67.244706 125.437441 67.386944 125.719826 67.386944 C 126.002211 67.386944 126.213477 67.244706 126.353624 66.962321 Z M 230.951158 168.744371 C 221.151349 168.744371 213.361703 165.820116 207.58013 159.967423 C 201.798556 154.116822 198.909861 146.272792 198.909861 136.439515 C 198.909861 135.312066 199.050008 133.442049 199.332393 130.833648 L 209.113376 51.577562 C 210.52321 40.2968 215.018363 31.16844 222.596742 24.188299 C 230.210681 17.17469 239.357867 13.666839 250.038299 13.666839 C 259.836016 13.666839 267.663313 16.557626 273.513914 22.337108 C 279.364515 28.118681 282.290861 35.839299 282.290861 45.49687 C 282.290861 46.659878 282.148623 48.686775 281.868329 51.577562 L 272.085254 130.833648 C 270.639861 142.254556 266.127975 151.437301 258.549595 158.381883 C 250.971216 165.290905 241.771737 168.744371 230.951158 168.744371 Z M 232.484404 155.31539 C 238.968803 155.31539 244.486817 153.112786 249.032171 148.705487 C 253.579617 144.300279 256.294698 138.625385 257.175321 131.680803 L 267.115277 50.941673 C 267.257515 50.06105 267.326542 48.898041 267.326542 47.452648 C 267.326542 41.390781 265.600856 36.489831 262.145299 32.75398 C 258.691834 28.98257 254.073268 27.09582 248.293787 27.09582 C 242.089681 27.09582 236.749465 29.300515 232.273138 33.705723 C 227.79472 38.11093 225.117291 43.856944 224.234576 50.941673 L 214.29462 131.680803 C 214.154473 132.561426 214.083354 133.866673 214.083354 135.59236 C 214.083354 141.51408 215.740014 146.291617 219.053332 149.922881 C 222.366651 153.516492 226.842977 155.31539 232.484404 155.31539 Z M 244.168872 1.294188 C 243.463955 1.294188 242.95357 1.047363 242.635626 0.553712 C 242.353241 0.024501 242.512213 -0.590471 243.110451 -1.29748 L 259.131099 -24.929975 C 259.836016 -25.917277 260.699905 -26.410928 261.722767 -26.410928 L 270.395127 -26.410928 C 271.240191 -26.410928 271.733842 -26.164103 271.873989 -25.670452 C 272.051787 -25.176801 271.838429 -24.561829 271.240191 -23.821352 L 253.686296 -0.239058 C 252.698994 0.783803 251.763986 1.294188 250.883363 1.294188 Z M 368.485253 166.999858 C 367.322245 166.999858 366.527383 166.418354 366.104851 165.255346 L 352.887137 98.36982 C 352.887137 97.911728 352.675871 97.683728 352.253339 97.683728 L 333.852289 97.683728 C 333.676583 97.683728 333.482051 97.752756 333.270785 97.894994 C 333.059519 98.035141 332.95284 98.265232 332.95284 98.581085 L 324.968663 164.832814 C 324.828516 165.395492 324.529397 165.907969 324.071306 166.366061 C 323.648774 166.788592 323.155123 166.999858 322.590353 166.999858 L 311.750949 166.999858 C 310.305555 166.999858 309.724051 166.278207 310.006436 164.832814 L 327.982863 17.578396 C 328.265248 16.135094 329.058018 15.411352 330.363264 15.411352 L 364.994137 15.411352 C 374.089029 15.411352 381.315996 18.513404 386.672946 24.717509 C 392.029896 30.921615 394.709417 39.221645 394.709417 49.621784 C 394.709417 51.207324 394.550444 53.727872 394.234591 57.181338 C 393.105051 66.594174 390.145237 74.699673 385.350965 81.504108 C 380.592253 88.270892 374.689359 93.01287 367.638098 95.725858 C 367.03986 95.903656 366.738649 96.271803 366.738649 96.836573 L 381.491702 164.621548 L 381.491702 165.04408 C 381.491702 166.347235 380.767959 166.999858 379.322566 166.999858 Z M 342.470264 28.842424 C 342.187879 28.842424 341.941054 28.911451 341.729788 29.05369 C 341.518522 29.193836 341.413935 29.405102 341.413935 29.687487 L 334.697353 84.463922 C 334.697353 84.781867 334.768472 85.009867 334.91071 85.152105 C 335.050857 85.292252 335.191004 85.363371 335.333242 85.363371 L 354.420383 85.363371 C 360.764635 85.363371 366.24709 82.807263 370.863563 77.697138 C 375.482129 72.549362 378.301796 65.711459 379.322566 57.181338 C 379.464804 55.878183 379.535924 54.079285 379.535924 51.788828 C 379.535924 44.7041 377.895998 39.117058 374.618239 35.027703 C 371.373948 30.902789 366.952007 28.842424 361.34614 28.842424 Z M 342.470264 28.842424 " stroke="#192128" stroke-width="16.242975" stroke-opacity="1" stroke-miterlimit="4"/><g fill="#ffffff" fill-opacity="1"><g transform="translate(80.330779, 565.601827)"><g><path d="M 174.3125 -280.28125 C 175.394531 -282.164062 177.144531 -283.109375 179.5625 -283.109375 L 199.796875 -283.109375 C 201.140625 -283.109375 202.148438 -282.703125 202.828125 -281.890625 C 203.503906 -281.078125 203.707031 -280.132812 203.4375 -279.0625 L 169.453125 -4.046875 C 169.453125 -2.960938 169.046875 -2.015625 168.234375 -1.203125 C 167.429688 -0.398438 166.359375 0 165.015625 0 L 145.1875 0 C 142.757812 0 141.546875 -1.347656 141.546875 -4.046875 L 168.25 -220.828125 C 168.519531 -221.628906 168.453125 -222.03125 168.046875 -222.03125 C 167.640625 -222.03125 167.164062 -221.765625 166.625 -221.234375 L 114.859375 -133.875 C 114.046875 -131.976562 112.695312 -131.03125 110.8125 -131.03125 C 108.382812 -131.03125 107.035156 -131.976562 106.765625 -133.875 L 76.4375 -220.828125 C 76.164062 -221.359375 75.828125 -221.625 75.421875 -221.625 C 75.023438 -221.625 74.691406 -221.222656 74.421875 -220.421875 L 48.125 -4.046875 C 47.851562 -2.960938 47.3125 -2.015625 46.5 -1.203125 C 45.695312 -0.398438 44.753906 0 43.671875 0 L 23.453125 0 C 20.753906 0 19.675781 -1.347656 20.21875 -4.046875 L 53.796875 -279.0625 C 54.328125 -281.757812 55.804688 -283.109375 58.234375 -283.109375 L 78.859375 -283.109375 C 81.285156 -283.109375 82.632812 -282.164062 82.90625 -280.28125 L 116.484375 -186.84375 C 116.484375 -186.3125 116.75 -186.046875 117.28125 -186.046875 C 117.820312 -186.046875 118.226562 -186.3125 118.5 -186.84375 Z M 174.3125 -280.28125 "/></g></g></g><g fill="#ffffff" fill-opacity="1"><g transform="translate(313.279543, 565.601827)"><g><path d="M 80.890625 3.234375 C 62.554688 3.234375 47.992188 -2.222656 37.203125 -13.140625 C 26.421875 -24.066406 21.03125 -38.695312 21.03125 -57.03125 C 21.03125 -59.1875 21.300781 -62.691406 21.84375 -67.546875 L 40.046875 -215.5625 C 42.734375 -236.59375 51.15625 -253.644531 65.3125 -266.71875 C 79.46875 -279.800781 96.523438 -286.34375 116.484375 -286.34375 C 134.816406 -286.34375 149.441406 -280.945312 160.359375 -270.15625 C 171.273438 -259.375 176.734375 -244.953125 176.734375 -226.890625 C 176.734375 -224.734375 176.46875 -220.957031 175.9375 -215.5625 L 157.734375 -67.546875 C 155.035156 -46.242188 146.609375 -29.117188 132.453125 -16.171875 C 118.296875 -3.234375 101.109375 3.234375 80.890625 3.234375 Z M 83.71875 -21.84375 C 95.851562 -21.84375 106.164062 -25.953125 114.65625 -34.171875 C 123.144531 -42.398438 128.203125 -52.984375 129.828125 -65.921875 L 148.421875 -216.78125 C 148.691406 -218.394531 148.828125 -220.550781 148.828125 -223.25 C 148.828125 -234.570312 145.59375 -243.738281 139.125 -250.75 C 132.65625 -257.757812 124.03125 -261.265625 113.25 -261.265625 C 101.65625 -261.265625 91.675781 -257.148438 83.3125 -248.921875 C 74.957031 -240.703125 69.96875 -229.988281 68.34375 -216.78125 L 49.75 -65.921875 C 49.476562 -64.304688 49.34375 -61.878906 49.34375 -58.640625 C 49.34375 -47.585938 52.441406 -38.691406 58.640625 -31.953125 C 64.847656 -25.210938 73.207031 -21.84375 83.71875 -21.84375 Z M 105.546875 -309.40625 C 104.203125 -309.40625 103.257812 -309.875 102.71875 -310.8125 C 102.175781 -311.757812 102.445312 -312.90625 103.53125 -314.25 L 133.453125 -358.34375 C 134.804688 -360.226562 136.425781 -361.171875 138.3125 -361.171875 L 154.484375 -361.171875 C 156.109375 -361.171875 157.050781 -360.695312 157.3125 -359.75 C 157.582031 -358.8125 157.179688 -357.664062 156.109375 -356.3125 L 123.34375 -312.234375 C 121.457031 -310.347656 119.707031 -309.40625 118.09375 -309.40625 Z M 105.546875 -309.40625 "/></g></g></g><g fill="#ffffff" fill-opacity="1"><g transform="translate(520.749672, 565.601827)"><g><path d="M 130.234375 0 C 128.078125 0 126.59375 -1.078125 125.78125 -3.234375 L 101.109375 -128.203125 C 101.109375 -129.015625 100.703125 -129.421875 99.890625 -129.421875 L 65.515625 -129.421875 C 65.242188 -129.421875 64.90625 -129.285156 64.5 -129.015625 C 64.101562 -128.742188 63.90625 -128.335938 63.90625 -127.796875 L 48.9375 -4.046875 C 48.664062 -2.960938 48.125 -2.015625 47.3125 -1.203125 C 46.507812 -0.398438 45.566406 0 44.484375 0 L 24.265625 0 C 21.566406 0 20.488281 -1.347656 21.03125 -4.046875 L 54.59375 -279.0625 C 55.132812 -281.757812 56.617188 -283.109375 59.046875 -283.109375 L 123.765625 -283.109375 C 140.742188 -283.109375 154.222656 -277.3125 164.203125 -265.71875 C 174.179688 -254.125 179.171875 -238.617188 179.171875 -219.203125 C 179.171875 -216.234375 178.898438 -211.515625 178.359375 -205.046875 C 176.203125 -187.523438 170.671875 -172.425781 161.765625 -159.75 C 152.867188 -147.082031 141.816406 -138.1875 128.609375 -133.0625 C 127.535156 -132.789062 127 -132.113281 127 -131.03125 L 154.5 -4.453125 L 154.5 -3.640625 C 154.5 -1.210938 153.148438 0 150.453125 0 Z M 81.703125 -258.03125 C 81.160156 -258.03125 80.6875 -257.894531 80.28125 -257.625 C 79.875 -257.351562 79.671875 -256.945312 79.671875 -256.40625 L 67.140625 -154.09375 C 67.140625 -153.550781 67.273438 -153.144531 67.546875 -152.875 C 67.816406 -152.601562 68.082031 -152.46875 68.34375 -152.46875 L 103.9375 -152.46875 C 115.800781 -152.46875 126.046875 -157.253906 134.671875 -166.828125 C 143.304688 -176.398438 148.566406 -189.140625 150.453125 -205.046875 C 150.722656 -207.472656 150.859375 -210.84375 150.859375 -215.15625 C 150.859375 -228.375 147.820312 -238.820312 141.75 -246.5 C 135.6875 -254.1875 127.394531 -258.03125 116.875 -258.03125 Z M 81.703125 -258.03125 "/></g></g></g></svg>