<svg id="uiSVG" viewBox="-10 -15 100 100" xmlns="http://www.w3.org/2000/svg" preserveAspectRatio="xMidYMid meet">

 

 
      <g id="cherryCocktail" class="cocktail">
        <path id="cherryGlass" d="M51.88,11.52a.85.85,0,0,0-.77-.5l-27,.12a.78.78,0,0,0-.74.53c-1,2.95-3,11.9.49,17.75,2.28,3.78,6.88,5.63,13.28,5.79v27h-6a.84.84,0,1,0,0,1.68H44.82a.84.84,0,0,0,0-1.68h-6v-27c6.4-.16,10.87-2.1,13.28-5.79C56.62,22.45,52.08,12,51.88,11.52Zm-1.22,17c-2.18,3.34-6.45,5-12.71,5s-10.48-1.72-12.7-5c-3.25-4.84-.43-15.68-.43-15.68l25.51-.11a42.15,42.15,0,0,1,1.9,6.72C52.59,22.44,52.41,25.83,50.66,28.51Z"/>
        <g id="lemon" class="drinkItem">
         <path transform="translate(0, 2)" d="M49.41,14a.84.84,0,0,0-1.06,0l-9.51,7a.86.86,0,0,0-.27,1,7.2,7.2,0,0,0,.76,1.28,6.89,6.89,0,0,0,7.54,2.46A7.06,7.06,0,0,0,49,24.66,6.88,6.88,0,0,0,50.35,15,7.1,7.1,0,0,0,49.41,14Zm-8.73,8.24c-.09-.12-.17-.24-.25-.37l3.12-2.3.9,4.73a2.19,2.19,0,0,1-.36,0A5.16,5.16,0,0,1,40.68,22.25Zm7.26,1.06a5.24,5.24,0,0,1-1.8.86l-.82-4.32L49.14,22A5.25,5.25,0,0,1,47.94,23.31Zm2-3.42a5.63,5.63,0,0,1-.14.59L45.6,18.07l3.16-2.32L49,16A5.15,5.15,0,0,1,50,19.89Z"/>
         </g>
        <path id="olive" d="M43.49,32.7,26,8.58m-3.65-5L20.31.8m3.84,8.37a3.12,3.12,0,1,1,3.12-3.12A3.12,3.12,0,0,1,24.15,9.17Z" fill="none" stroke="#FFF" stroke-linecap="round" stroke-miterlimit="10" stroke-width="1.5"/>

        <clipPath id="cherryMask">
          <path class="cherryMask" d="M50.66,28.51c-2.18,3.34-6.45,5-12.71,5s-10.48-1.72-12.7-5c-3.25-4.84-.43-15.68-.43-15.68l25.51-.11a42.15,42.15,0,0,1,1.9,6.72C52.59,22.44,52.41,25.83,50.66,28.51Z" fill="#39b54a"/>
        </clipPath>
        <g clip-path="url(#cherryMask)">        
          <rect id="cherryLiquid" class="drinkLiquid" y="25.56" width="78.5" height="38.29" fill-opacity="0.23" stroke="#FFF" stroke-width="2"/>
        </g>
      </g> 
 
    

</svg>