<?xml version="1.0" encoding="UTF-8" standalone="no" ?>
<!DOCTYPE svg PUBLIC "-//W3C//DTD SVG 1.1//EN" "http://www.w3.org/Graphics/SVG/1.1/DTD/svg11.dtd">
<svg xmlns="http://www.w3.org/2000/svg" xmlns:xlink="http://www.w3.org/1999/xlink" version="1.1" width="100" height="100" viewBox="0 0 100 100" xml:space="preserve">
<desc>Created with Fabric.js 5.2.4</desc>
<defs>
</defs>
<g transform="matrix(0 0 0 0 0 0)" id="feeffd76-09af-4852-b578-133e437b09f5"  >
</g>
<g transform="matrix(1 0 0 1 50 50)" id="dd3e5d27-a8cc-47b0-bd43-9a37c20edbc5"  >
<rect style="stroke: none; stroke-width: 1; stroke-dasharray: none; stroke-linecap: butt; stroke-dashoffset: 0; stroke-linejoin: miter; stroke-miterlimit: 4; fill: rgb(255,255,255); fill-rule: nonzero; opacity: 1; visibility: hidden;" vector-effect="non-scaling-stroke"  x="-50" y="-50" rx="0" ry="0" width="100" height="100" />
</g>
<g transform="matrix(1.07 0 0 1.07 44.44 44.02)"  >
<path style="stroke: none; stroke-width: 1; stroke-dasharray: none; stroke-linecap: butt; stroke-dashoffset: 0; stroke-linejoin: miter; stroke-miterlimit: 4; fill: rgb(0,0,0); fill-rule: evenodd; opacity: 1;" vector-effect="non-scaling-stroke"  transform=" translate(-449.5, -450.13)" d="M 433 453 L 433 453 C 424.715729 453 418 446.284271 418 438 C 418 429.715729 424.715729 423 433 423 C 441.284271 423 448 429.715729 448 438 L 467.14074 438 L 473.699871 416.962616 C 473.868014 416.423324 474.431703 416.133622 474.964236 416.298454 L 476.856908 416.884281 C 477.397615 417.051643 477.686771 417.613713 477.521015 418.145351 L 471.330642 438 L 479 438 C 480.104569 438 481 438.895431 481 440 L 481 469.003 C 481 471.493791 480.215495 475.189566 479.20067 477.472921 L 476.827623 482.812277 C 476.50662 483.534533 475.790377 484 475 484 L 439 484 C 438.209623 484 437.49338 483.534533 437.172377 482.812277 L 434.79933 477.472921 C 433.788303 475.198111 433 471.485049 433 469.003 L 433 453 Z M 444 438 C 444 431.924868 439.075132 427 433 427 C 426.924868 427 422 431.924868 422 438 C 422 444.075132 426.924868 449 433 449 L 433 440 C 433 438.895431 433.895431 438 435 438 L 444 438 L 444 438 Z M 470.083504 442 L 470.083504 442 L 466.099607 454.777722 C 468.846726 454.852849 471.633675 454.538791 474.343917 453.936515 C 475.169984 453.752944 475.914884 453.556918 476.564193 453.362125 C 476.734962 453.310895 476.880666 453.265454 477 453.227067 L 477 442 L 470.083504 442 Z M 465.893602 442 L 437 442 L 437 452.598861 C 437.520475 452.456917 438.119265 452.307425 438.788361 452.158737 C 444.109716 450.976214 449.706746 450.783213 455.012346 452.230195 C 455.944208 452.484339 456.855031 452.787946 457.742781 453.143047 C 458.486975 453.440724 459.253236 453.696144 460.040124 453.91075 C 460.698969 454.090435 461.365844 454.24077 462.038898 454.363357 L 465.893602 442 L 465.893602 442 Z M 463.841975 462.99832 C 462.770216 462.731101 461.684759 463.383309 461.417539 464.455068 L 458.99832 474.158025 C 458.731101 475.229784 459.383309 476.315241 460.455068 476.582461 L 470.158025 479.00168 C 471.229784 479.268899 472.315241 478.616691 472.582461 477.544932 L 475.00168 467.841975 C 475.268899 466.770216 474.616691 465.684759 473.544932 465.417539 L 463.841975 462.99832 Z M 447.630423 456.405617 L 439.750316 462.562232 C 438.879903 463.242273 438.725576 464.499164 439.405617 465.369577 L 445.562232 473.249684 C 446.242273 474.120097 447.499164 474.274424 448.369577 473.594383 L 456.249684 467.437768 C 457.120097 466.757727 457.274424 465.500836 456.594383 464.630423 L 450.437768 456.750316 C 449.757727 455.879903 448.500836 455.725576 447.630423 456.405617 Z M 463.363347 473.185121 L 464.814879 467.363347 L 470.636653 468.814879 L 469.185121 474.636653 L 463.363347 473.185121 Z M 443.788983 464.482952 L 448.517048 460.788983 L 452.211017 465.517048 L 447.482952 469.211017 L 443.788983 464.482952 Z" stroke-linecap="round" />
</g>
</svg>