<svg id="uiSVG" viewBox="-10 -15 100 100" xmlns="http://www.w3.org/2000/svg" preserveAspectRatio="xMidYMid meet">

 

 
      
 

 
 <g id="punch" class="cocktail">
        <path id="punchOutline" d="M45.68,67H38.25V50.73c0-.89,1.45-1.91,3.12-3.09,3.48-2.45,8.74-6.16,8.74-14.37a19.38,19.38,0,0,0-1.75-7.42A20.92,20.92,0,0,1,46.73,20c-.3-3.22,1-7.4,1.72-9.61a1,1,0,0,0-.13-.91A1,1,0,0,0,47.51,9H27a1,1,0,0,0-.81.42,1,1,0,0,0-.13.91c.77,2.21,2,6.39,1.72,9.61a21.26,21.26,0,0,1-1.63,5.88,19.38,19.38,0,0,0-1.75,7.42c0,8.21,5.26,11.92,8.74,14.37,1.67,1.18,3.12,2.2,3.12,3.09V67H28.82a1,1,0,0,0,0,2H45.68a1,1,0,0,0,0-2ZM34.28,46c-3.51-2.47-7.89-5.56-7.89-12.73A17.6,17.6,0,0,1,28,26.57a22.74,22.74,0,0,0,1.76-6.41A25.05,25.05,0,0,0,28.38,11H46.12a25.05,25.05,0,0,0-1.38,9.13,22.42,22.42,0,0,0,1.76,6.41,17.79,17.79,0,0,1,1.61,6.7c0,7.17-4.38,10.26-7.89,12.73a18.54,18.54,0,0,0-2.81,2.25.94.94,0,0,0-.16,0,.75.75,0,0,0-.16,0A19,19,0,0,0,34.28,46Z"/>
        <g id="punchLemon" >
               
         <path d="M47.87,18a8.61,8.61,0,0,1-2-.23,1,1,0,0,1,.46-1.94,6.9,6.9,0,0,0,1.5.17,6.49,6.49,0,1,0-6.49-6.49,1,1,0,0,1-1,1,1,1,0,0,1-1-.92V9.53A8.49,8.49,0,1,1,47.87,18Z"/>
          <path d="M46.72,7.54A1,1,0,0,1,45.8,7l-.36-.83a1,1,0,1,1,1.82-.81l.37.83a1,1,0,0,1-.51,1.32A1,1,0,0,1,46.72,7.54Z"/>
          <path d="M50.77,9.16a1,1,0,0,1-.38-1.92l.93-.38a1,1,0,0,1,.76,1.85l-.93.38A1,1,0,0,1,50.77,9.16Z"/>
          <path d="M51,13.89a1.13,1.13,0,0,1-.5-.13l-.91-.53a1,1,0,1,1,1-1.73l.91.52a1,1,0,0,1-.5,1.87Z"/>

        </g>
<g id="punchIce" class="drinkItem">
          <path d="M37.32,28.91a2,2,0,0,0-2.65,0l-2.75,2.75a1.76,1.76,0,0,0-.59,1.28,1.61,1.61,0,0,0,.59,1.28L34.67,37a1.73,1.73,0,0,0,1.28.59A1.57,1.57,0,0,0,37.22,37L40,34.22a2,2,0,0,0,0-2.65ZM36,35.69,33.29,33,36,30.39,38.6,33Z"/>
          <path d="M36,24.49a1.93,1.93,0,0,0,1.67,1.18,1.63,1.63,0,0,0,.69-.1L42,24.1a1.84,1.84,0,0,0,1-2.46L41.54,18a1.83,1.83,0,0,0-2.45-1L35.45,18.5a1.84,1.84,0,0,0-1,2.46Zm3.74-5.79,1.47,3.44-3.44,1.47-1.47-3.44Z"/>
        </g>    
        <clipPath id="punchMask">
          <path class="punchMask" d="M34.28,46c-3.51-2.47-7.89-5.56-7.89-12.73A17.6,17.6,0,0,1,28,26.57a22.74,22.74,0,0,0,1.76-6.41A25.05,25.05,0,0,0,28.38,11H46.12a25.05,25.05,0,0,0-1.38,9.13,22.42,22.42,0,0,0,1.76,6.41,17.79,17.79,0,0,1,1.61,6.7c0,7.17-4.38,10.26-7.89,12.73a18.54,18.54,0,0,0-2.81,2.25.94.94,0,0,0-.16,0,.75.75,0,0,0-.16,0A19,19,0,0,0,34.28,46Z" fill="#39b54a"/>

        </clipPath>
        <g clip-path="url(#punchMask)">
            <rect id="punchLiquid" class="drinkLiquid" y="19.94" width="78.5" height="49.82" fill-opacity="0.23" stroke="#FFF" stroke-width="2"/>
        </g>
      </g>  


</svg>